<mxfile host="app.diagrams.net" agent="Mozilla/5.0 (Windows NT 10.0; Win64; x64) AppleWebKit/537.36 (KHTML, like Gecko) Chrome/131.0.0.0 Safari/537.36" version="25.0.3">
  <diagram id="C5RBs43oDa-KdzZeNtuy" name="Page-1">
    <mxGraphModel dx="1290" dy="522" grid="1" gridSize="10" guides="1" tooltips="1" connect="1" arrows="1" fold="1" page="1" pageScale="1" pageWidth="827" pageHeight="1169" math="0" shadow="0">
      <root>
        <mxCell id="WIyWlLk6GJQsqaUBKTNV-0" />
        <mxCell id="WIyWlLk6GJQsqaUBKTNV-1" parent="WIyWlLk6GJQsqaUBKTNV-0" />
        <mxCell id="X2sxknbzIiTnbJ2J-32k-0" value="&lt;div&gt;&amp;lt;&amp;lt;controller&amp;gt;&amp;gt;&lt;/div&gt;creditWorthinessHandler" style="swimlane;fontStyle=1;align=center;verticalAlign=top;childLayout=stackLayout;horizontal=1;startSize=50;horizontalStack=0;resizeParent=1;resizeParentMax=0;resizeLast=0;collapsible=1;marginBottom=0;whiteSpace=wrap;html=1;" vertex="1" parent="WIyWlLk6GJQsqaUBKTNV-1">
          <mxGeometry x="168" y="613" width="160" height="80" as="geometry" />
        </mxCell>
        <mxCell id="X2sxknbzIiTnbJ2J-32k-1" value="" style="line;strokeWidth=1;fillColor=none;align=left;verticalAlign=middle;spacingTop=-1;spacingLeft=3;spacingRight=3;rotatable=0;labelPosition=right;points=[];portConstraint=eastwest;strokeColor=inherit;" vertex="1" parent="X2sxknbzIiTnbJ2J-32k-0">
          <mxGeometry y="50" width="160" height="30" as="geometry" />
        </mxCell>
        <mxCell id="X2sxknbzIiTnbJ2J-32k-2" style="edgeStyle=orthogonalEdgeStyle;rounded=0;orthogonalLoop=1;jettySize=auto;html=1;entryX=0.5;entryY=0;entryDx=0;entryDy=0;" edge="1" parent="WIyWlLk6GJQsqaUBKTNV-1" source="X2sxknbzIiTnbJ2J-32k-3" target="X2sxknbzIiTnbJ2J-32k-0">
          <mxGeometry relative="1" as="geometry" />
        </mxCell>
        <mxCell id="X2sxknbzIiTnbJ2J-32k-3" value="&lt;div&gt;&amp;lt;&amp;lt;boundary&amp;gt;&amp;gt;&lt;/div&gt;SalesDeptWindow" style="swimlane;fontStyle=1;align=center;verticalAlign=top;childLayout=stackLayout;horizontal=1;startSize=50;horizontalStack=0;resizeParent=1;resizeParentMax=0;resizeLast=0;collapsible=1;marginBottom=0;whiteSpace=wrap;html=1;" vertex="1" parent="WIyWlLk6GJQsqaUBKTNV-1">
          <mxGeometry x="168" y="449" width="160" height="80" as="geometry" />
        </mxCell>
        <mxCell id="X2sxknbzIiTnbJ2J-32k-4" value="" style="line;strokeWidth=1;fillColor=none;align=left;verticalAlign=middle;spacingTop=-1;spacingLeft=3;spacingRight=3;rotatable=0;labelPosition=right;points=[];portConstraint=eastwest;strokeColor=inherit;" vertex="1" parent="X2sxknbzIiTnbJ2J-32k-3">
          <mxGeometry y="50" width="160" height="30" as="geometry" />
        </mxCell>
        <mxCell id="X2sxknbzIiTnbJ2J-32k-5" value="UserProfile" style="swimlane;fontStyle=1;align=center;verticalAlign=top;childLayout=stackLayout;horizontal=1;startSize=26;horizontalStack=0;resizeParent=1;resizeParentMax=0;resizeLast=0;collapsible=1;marginBottom=0;whiteSpace=wrap;html=1;" vertex="1" parent="WIyWlLk6GJQsqaUBKTNV-1">
          <mxGeometry x="469" y="511" width="190" height="210" as="geometry" />
        </mxCell>
        <mxCell id="X2sxknbzIiTnbJ2J-32k-6" value="- Cust_id: int {key}&lt;div&gt;- Cust_name: string&lt;/div&gt;&lt;div&gt;- Cust_phoneNum: string&lt;/div&gt;&lt;div&gt;- Cust_Email: string&lt;/div&gt;&lt;div&gt;- Cust_Address: string&lt;/div&gt;&lt;div&gt;- Nationality: string&lt;/div&gt;&lt;div&gt;- Bank_Acc: int&lt;/div&gt;&lt;div&gt;- Date_Birth: date&lt;/div&gt;&lt;div&gt;- auth_Credit_Worthiness: bool&lt;/div&gt;&lt;div&gt;&lt;br style=&quot;text-align: center;&quot;&gt;&lt;/div&gt;" style="text;strokeColor=none;fillColor=none;align=left;verticalAlign=top;spacingLeft=4;spacingRight=4;overflow=hidden;rotatable=0;points=[[0,0.5],[1,0.5]];portConstraint=eastwest;whiteSpace=wrap;html=1;" vertex="1" parent="X2sxknbzIiTnbJ2J-32k-5">
          <mxGeometry y="26" width="190" height="134" as="geometry" />
        </mxCell>
        <mxCell id="X2sxknbzIiTnbJ2J-32k-7" value="" style="line;strokeWidth=1;fillColor=none;align=left;verticalAlign=middle;spacingTop=-1;spacingLeft=3;spacingRight=3;rotatable=0;labelPosition=right;points=[];portConstraint=eastwest;strokeColor=inherit;" vertex="1" parent="X2sxknbzIiTnbJ2J-32k-5">
          <mxGeometry y="160" width="190" height="50" as="geometry" />
        </mxCell>
        <mxCell id="X2sxknbzIiTnbJ2J-32k-8" style="edgeStyle=orthogonalEdgeStyle;rounded=0;orthogonalLoop=1;jettySize=auto;html=1;entryX=0.019;entryY=0.412;entryDx=0;entryDy=0;entryPerimeter=0;" edge="1" parent="WIyWlLk6GJQsqaUBKTNV-1" source="X2sxknbzIiTnbJ2J-32k-0" target="X2sxknbzIiTnbJ2J-32k-6">
          <mxGeometry relative="1" as="geometry" />
        </mxCell>
      </root>
    </mxGraphModel>
  </diagram>
</mxfile>
